<?xml version="1.0" encoding="UTF-8" standalone="no"?>
<!DOCTYPE svg PUBLIC "-//W3C//DTD SVG 1.1//EN" "http://www.w3.org/Graphics/SVG/1.1/DTD/svg11.dtd">
<!-- Generated by Microsoft Visio, SVG Export Drawing1.svg Page-1 -->
<svg xmlns="http://www.w3.org/2000/svg" xmlns:xlink="http://www.w3.org/1999/xlink" xmlns:ev="http://www.w3.org/2001/xml-events"
		width="2.47762in" height="9.1106in" viewBox="0 0 178.389 655.963" xml:space="preserve" color-interpolation-filters="sRGB"
		class="st11">
	<style type="text/css">
	<![CDATA[
		.st1 {stroke:#000000;stroke-linecap:round;stroke-linejoin:round;stroke-width:1}
		.st2 {marker-end:url(#mrkr4-9);stroke:#000000;stroke-linecap:round;stroke-linejoin:round;stroke-width:1}
		.st3 {fill:#000000;fill-opacity:1;stroke:#000000;stroke-opacity:1;stroke-width:0.28409090909091}
		.st4 {fill:#007f7f;stroke:#000000;stroke-width:0.75}
		.st5 {fill:#feffff;font-family:Source Sans Pro Light;font-size:0.916672em}
		.st6 {fill:#feffff;font-family:Source Sans Pro;font-size:0.666664em}
		.st7 {font-size:1em}
		.st8 {fill:#007f7f;stroke:#000000;stroke-width:1}
		.st9 {fill:#007f7f;stroke:#000000;stroke-width:0.25}
		.st10 {fill:#feffff;font-family:Calibri;font-size:0.666664em}
		.st11 {fill:none;fill-rule:evenodd;font-size:12px;overflow:visible;stroke-linecap:square;stroke-miterlimit:3}
	]]>
	</style>

	<defs id="Markers">
		<g id="lend4">
			<path d="M 2 1 L 0 0 L 2 -1 L 2 1 " style="stroke:none"/>
		</g>
		<marker id="mrkr4-9" class="st3" refX="-7.04" orient="auto" markerUnits="strokeWidth" overflow="visible">
			<use xlink:href="#lend4" transform="scale(-3.52,-3.52) "/>
		</marker>
	</defs>
	<g>
		<title>Page-1</title>
		<g id="shape21-1" transform="translate(79.811,-114.844)">
			<title>Dynamic connector.21</title>
			<path d="M7.09 655.96 L7.09 677.22" class="st1"/>
		</g>
		<g id="shape32-4" transform="translate(79.9527,-335.181)">
			<title>Dynamic connector.32</title>
			<path d="M6.94 655.96 L7.16 677.41" class="st2"/>
		</g>
		<g id="shape5-10" transform="translate(51.4646,-608.867)">
			<title>Start/End</title>
			<desc>Start</desc>
			<path d="M14.17 655.96 L56.69 655.96 A14.1732 14.1732 -180 0 0 56.69 627.62 L14.17 627.62 A14.1732 14.1732 -180 1 0 14.17
						 655.96 Z" class="st4"/>
			<text x="24.69" y="645.09" class="st5">Start</text>		</g>
		<g id="shape6-13" transform="translate(51.4646,-530.914)">
			<title>Process</title>
			<desc>Initialize stack and begin advertisement</desc>
			<rect x="0" y="613.443" width="70.8661" height="42.5197" class="st4"/>
			<text x="4.3" y="627.5" class="st6">Initialize stack and <tspan x="26.05" dy="1.2em" class="st7">begin </tspan><tspan
						x="11.12" dy="1.2em" class="st7">advertisement</tspan></text>		</g>
		<g id="shape7-18" transform="translate(51.4646,-445.874)">
			<title>Process.7</title>
			<desc>Wait for connection request</desc>
			<rect x="0" y="613.443" width="70.8661" height="42.5197" class="st4"/>
			<text x="2.75" y="632.3" class="st6">Wait for connection <tspan x="22.65" dy="1.2em" class="st7">request</tspan></text>		</g>
		<g id="shape8-22" transform="translate(46.7874,-352.331)">
			<title>Decision</title>
			<desc>Connection request received?</desc>
			<path d="M0 630.29 L40.11 604.62 L80.22 630.29 L40.11 655.96 L0 630.29 Z" class="st4"/>
			<text x="20.78" y="627.89" class="st6">Connection <tspan x="10.59" dy="1.2em" class="st7">request received?</tspan></text>		</g>
		<g id="shape9-26" transform="translate(51.748,-264.174)">
			<title>Process.9</title>
			<desc>Process connection request and save the connection ID</desc>
			<rect x="0" y="613.443" width="70.8661" height="42.5197" class="st4"/>
			<text x="2.79" y="627.5" class="st6">Process connection <tspan x="7.09" dy="1.2em" class="st7">request and save </tspan><tspan
						x="5.94" dy="1.2em" class="st7">the connection ID</tspan></text>		</g>
		<g id="shape10-31" transform="translate(51.4646,-195.008)">
			<title>Process.10</title>
			<desc>Wait for alert level to be updated</desc>
			<rect x="0" y="613.443" width="70.8661" height="42.5197" class="st4"/>
			<text x="5.18" y="632.3" class="st6">Wait for alert level <tspan x="11.93" dy="1.2em" class="st7">to be updated</tspan></text>		</g>
		<g id="shape11-35" transform="translate(46.0787,-114.844)">
			<title>Decision.11</title>
			<desc>Is the alert level updated?</desc>
			<path d="M0 631.47 L40.82 606.98 L81.64 631.47 L40.82 655.96 L0 631.47 Z" class="st8"/>
			<text x="14.54" y="629.07" class="st6">Is the alert level <tspan x="24.93" dy="1.2em" class="st7">updated?</tspan></text>		</g>
		<g id="shape12-39" transform="translate(51.4646,-18.75)">
			<title>Process.12</title>
			<desc>Update the LED state</desc>
			<rect x="0" y="613.443" width="70.8661" height="42.5197" class="st4"/>
			<text x="9.44" y="632.3" class="st6">Update the LED <tspan x="27.05" dy="1.2em" class="st7">state</tspan></text>		</g>
		<g id="shape13-43" transform="translate(79.811,-608.867)">
			<title>Dynamic connector</title>
			<path d="M7.09 655.96 L7.09 684.36" class="st2"/>
		</g>
		<g id="shape15-48" transform="translate(49.4803,-378.002)">
			<title>Dynamic connector.15</title>
			<path d="M-2.69 655.96 L-11.48 655.96 L-11.48 630.33" class="st1"/>
		</g>
		<g id="shape16-51" transform="translate(79.811,-530.914)">
			<title>Dynamic connector.16</title>
			<path d="M7.09 655.96 L7.09 691.44" class="st2"/>
		</g>
		<g id="shape17-56" transform="translate(79.811,-445.874)">
			<title>Dynamic connector.17</title>
			<path d="M7.09 655.96 L7.09 691.13" class="st2"/>
		</g>
		<g id="shape18-61" transform="translate(79.811,-352.331)">
			<title>Dynamic connector.18</title>
			<path d="M7.09 655.96 L7.09 673.11" class="st1"/>
		</g>
		<g id="shape19-64" transform="translate(94.126,-264.174)">
			<title>Dynamic connector.19</title>
			<path d="M-6.94 655.96 L-7.15 675.57" class="st2"/>
		</g>
		<g id="shape20-69" transform="translate(79.811,-193.591)">
			<title>Dynamic connector.20</title>
			<path d="M7.09 655.96 L7.09 678.69" class="st2"/>
		</g>
		<g id="shape22-74" transform="translate(117.937,-40.0098)">
			<title>Dynamic connector.22</title>
			<path d="M4.39 655.96 L22.45 655.96 L22.45 556.64 L16.82 556.64" class="st2"/>
		</g>
		<g id="shape23-79" transform="translate(49.126,-139.336)">
			<title>Dynamic connector.23</title>
			<path d="M-3.05 655.96 L-11.13 655.96 L-11.13 618.43" class="st1"/>
		</g>
		<g id="shape24-82" transform="translate(28.7874,-176.867)">
			<title>Process.24</title>
			<desc>No</desc>
			<rect x="0" y="644.908" width="18.4252" height="11.0551" class="st9"/>
			<text x="4.46" y="652.84" class="st6">No</text>		</g>
		<g id="shape25-85" transform="translate(37.6457,-187.922)">
			<title>Dynamic connector.25</title>
			<path d="M0.35 655.96 L0.35 627.62 L6.78 627.62" class="st2"/>
		</g>
		<g id="shape26-90" transform="translate(28.7874,-403.638)">
			<title>Process.26</title>
			<desc>No</desc>
			<rect x="0" y="644.908" width="18.4252" height="11.0551" class="st9"/>
			<text x="4.46" y="652.84" class="st6">No</text>		</g>
		<g id="shape28-93" transform="translate(37.6457,-414.693)">
			<title>Dynamic connector.28</title>
			<path d="M0.35 655.96 L0.35 603.52 L6.78 603.52" class="st2"/>
		</g>
		<g id="shape30-98" transform="translate(77.685,-324.126)">
			<title>Process.30</title>
			<desc>Yes</desc>
			<rect x="0" y="644.908" width="18.4252" height="11.0551" class="st9"/>
			<text x="3.65" y="652.84" class="st6">Yes</text>		</g>
		<g id="shape33-101" transform="translate(77.685,-82.5295)">
			<title>Process.33</title>
			<desc>Yes</desc>
			<rect x="0" y="644.908" width="18.4252" height="11.0551" class="st9"/>
			<text x="3.71" y="652.84" class="st10">Yes</text>		</g>
		<g id="shape34-104" transform="translate(79.811,-82.5295)">
			<title>Dynamic connector.34</title>
			<path d="M7.09 655.96 L7.09 670.18" class="st2"/>
		</g>
	</g>
</svg>
